{"title":"India vs SouthAfrica.VOB","uid":7658109,"size":390205440,"categoryP":"video","categoryS":"movie_clips","magnet":"?xt=urn:btih:4ad07a89737d01f9d7e6328e368d9ee7ea1e2b34&amp;dn=India+vs+SouthAfrica.VOB&amp;tr=udp%3A%2F%2Ftracker.openbittorrent.com%3A80&amp;tr=udp%3A%2F%2Fopen.demonii.com%3A1337&amp;tr=udp%3A%2F%2Ftracker.coppersurfer.tk%3A6969&amp;tr=udp%3A%2F%2Fexodus.desync.com%3A6969","seeders":0,"leechers":0,"uploader":"festival91","files":1,"time":1348226268,"description":"This is the league match between India and South africa in 2007 T20World Cup. \n\nHope you'll like it.\n\nScreenshots:\n &lt;a href=&quot;\nhttp://imageshack.us/f/100/vlcsnap2012092114h28m57.png/&quot; rel=&quot;nofollow&quot; target=&quot;_NEW&quot;&gt;\nhttp://imageshack.us/f/100/vlcsnap2012092114h28m57.png/&lt;/a&gt; &lt;a href=&quot;\nhttp://imageshack.us/f/42/vlcsnap2012092114h27m26.png/&quot; rel=&quot;nofollow&quot; target=&quot;_NEW&quot;&gt;\nhttp://imageshack.us/f/42/vlcsnap2012092114h27m26.png/&lt;/a&gt; &lt;a href=&quot;\nhttp://imageshack.us/f/443/vlcsnap2012092114h28m03.png/&quot; rel=&quot;nofollow&quot; target=&quot;_NEW&quot;&gt;\nhttp://imageshack.us/f/443/vlcsnap2012092114h28m03.png/&lt;/a&gt; &lt;a href=&quot;\nhttp://imageshack.us/f/829/vlcsnap2012092114h28m23.png/&quot; rel=&quot;nofollow&quot; target=&quot;_NEW&quot;&gt;\nhttp://imageshack.us/f/829/vlcsnap2012092114h28m23.png/&lt;/a&gt;\n\n\nGeneral:\n\nComplete name : India vs SouthAfrica.VOB\nFormat : MPEG-PS\nFile size : 372 MiB\nDuration : 20mn 14s\nOverall bit rate : 2 569 Kbps\n\nVideo:\n\nID : 224 (0xE0)\nFormat : MPEG Video\nFormat version : Version 2\nFormat profile : Main@Main\nFormat settings, BVOP : Yes\nFormat settings, Matrix : Default\nFormat settings, GOP : M=3, N=15\nDuration : 20mn 14s\nBit rate mode : Variable\nBit rate : 2 326 Kbps\nNominal bit rate : 9 641 Kbps\nWidth : 704 pixels\nHeight : 480 pixels\nDisplay aspect ratio : 4:3\nFrame rate : 29.970 fps\nStandard : NTSC\nColor space : YUV\nChroma subsampling : 4:2:0\nBit depth : 8 bits\nScan type : Progressive\nScan order : Bottom Field First\nCompression mode : Lossy\nBits/(Pixel*Frame) : 0.230\nStream size : 337 MiB (91%)\n\nAudio:\n\nID : 189 (0xBD)-128 (0x80)\nFormat : AC-3\nFormat/Info : Audio Coding 3\nMode extension : CM (complete main)\nMuxing mode : DVD-Video\nDuration : 20mn 14s\nBit rate mode : Constant\nBit rate : 192 Kbps\nChannel(s) : 2 channels\nChannel positions : Front: L R\nSampling rate : 48.0 KHz\nBit depth : 16 bits\nCompression mode : Lossy\nDelay relative to video : -410ms\nStream size : 27.8 MiB (7%)","torrent":{"xt":"urn:btih:4ad07a89737d01f9d7e6328e368d9ee7ea1e2b34","amp;dn":"India+vs+SouthAfrica.VOB","amp;tr":["udp%3A%2F%2Ftracker.openbittorrent.com%3A80","udp%3A%2F%2Fopen.demonii.com%3A1337","udp%3A%2F%2Ftracker.coppersurfer.tk%3A6969","udp%3A%2F%2Fexodus.desync.com%3A6969"],"infoHash":"4ad07a89737d01f9d7e6328e368d9ee7ea1e2b34","infoHashBuffer":{"type":"Buffer","data":[74,208,122,137,115,125,1,249,215,230,50,142,54,141,158,231,234,30,43,52]},"announce":[],"urlList":[]}}